<?xml version="1.0" encoding="utf-8"?>
<!-- Generator: Adobe Illustrator 16.0.0, SVG Export Plug-In . SVG Version: 6.00 Build 0)  -->
<!DOCTYPE svg PUBLIC "-//W3C//DTD SVG 1.1//EN" "http://www.w3.org/Graphics/SVG/1.1/DTD/svg11.dtd">
<svg version="1.1" id="Layer_1" xmlns="http://www.w3.org/2000/svg" xmlns:xlink="http://www.w3.org/1999/xlink" x="0px" y="0px"
	 width="792px" height="612px" viewBox="0 0 792 612" enable-background="new 0 0 792 612" xml:space="preserve">
<g>
	<path fill="#6D6E71" d="M681.509,307.834c0,152.133-123.328,275.463-275.462,275.463c-152.137,0-275.465-123.33-275.465-275.463
		c0-152.125,123.329-275.454,275.465-275.454C558.181,32.38,681.509,155.709,681.509,307.834z"/>
	<path fill="#F6F4F4" d="M529.091,374.803c9.175,0.021,17.011-1.863,20.162-12.004c12.697-40.834,25.542-81.649,38.038-122.545
		c3.251-10.639-2.439-18.149-13.501-18.989c-3.174-0.24-6.373-0.097-9.559-0.097c-86.395-0.005-172.79-0.102-259.185,0.156
		c-7.504,0.026-11.573-1.926-13.859-9.352c-3.112-10.113-7.474-19.839-11.08-29.809c-2.889-7.977-8.116-11.836-16.818-11.649
		c-14.157,0.311-28.326-0.109-42.482,0.184c-9.327,0.192-15.542,6.206-14.882,14.318c0.704,8.698,5.87,13.374,14.659,13.545
		c8.497,0.162,17.041,0.59,25.481-0.109c7.601-0.629,10.961,2.22,13.636,9.301c22.714,60.18,45.761,120.228,69.004,180.208
		c2.75,7.098,2.946,11.371-4.03,16.668c-14.069,10.682-18.217,29.66-11.862,46.037c6.464,16.67,22.574,26.928,40.931,26.184
		c17.303-0.699,32.667-12.412,37.084-29.715c1.941-7.592,1.53-15.104,2.213-24.143h81.351c-0.302,5.164-0.822,9.146-0.778,13.312
		c0.197,18.295,12.364,34.205,30.211,39.389c17.398,5.059,36.537-2.225,46.109-17.846c8.243-13.449,8.903-27.494,1.421-41.381
		c-8.139-15.1-21.478-21.98-38.405-22.016c-45.32-0.092-90.643,0.236-135.962,0.232c-18.182,0-18.182-1.396-22.016-19.477h11.6
		C420.747,375.207,474.921,374.68,529.091,374.803z M481.118,250.579h73.384c-3.868,13.561-7.286,24.736-11.53,36.664
		c-0.873,2.447-4.79,5.281-7.373,5.347c-18.715,0.459-37.443,0.332-57.548,0.332C479.091,278.508,480.069,264.14,481.118,250.579z
		 M476.888,307.403h59.733c-3.697,11.624-7.059,23.638-10.983,35.063c-0.529,1.541-3.863,3.002-5.926,3.041
		c-14.8,0.254-29.604,0.189-46.027,0.189C474.825,332.061,475.843,320.965,476.888,307.403z M501.839,435.744
		c0.504-7.623,4.812-12.158,12.628-12.945c7.4-0.24,14.038,5.816,13.562,13.059c-0.503,7.627-4.935,12.326-12.632,13.033
		C508.435,449.529,501.381,442.746,501.839,435.744z M459.44,345.502h-52.632c-1.03-12.914-2.036-24.537-3.107-38.099h58.812
		C461.464,320.965,460.468,332.588,459.44,345.502z M466.972,250.579c-0.893,11.623-2.453,34.862-2.453,34.862l-0.428,8.402h-61.198
		c0,0-2.671-31.642-3.575-43.265H466.972z M319.483,286.142c-3.877-11.652-8.593-23.939-13.514-35.562h78.825
		c1.18,13.561,2.342,27.121,3.688,43.265h-17.801c-13.414,0-26.836-0.508-40.241-0.197
		C324.754,293.777,321.433,292.003,319.483,286.142z M364.641,435.346c-0.048,7.549-6.805,14.236-13.768,13.533
		c-7.684-0.775-12.098-5.482-12.518-13.131c-0.397-7.264,6.281-13.422,13.645-12.889
		C359.912,423.432,363.679,428.35,364.641,435.346z M346.887,345.332c-1.901-0.039-4.76-1.822-5.468-3.518
		c-4.585-10.975-8.689-20.85-13.353-34.411h61.242c1.032,13.562,2.072,24.192,3.257,38.026
		C376.411,345.43,361.643,345.621,346.887,345.332z"/>
</g>
</svg>
