<svg height="464pt" viewBox="-96 0 464 464" width="464pt" xmlns="http://www.w3.org/2000/svg"><path d="m160 96h24v32h-24zm0 0"/><path d="m120 96h24v32h-24zm0 0"/><path d="m43.304688 139.601562c3.605468-4.832031 6.320312-10.1875 8.046874-15.953124l19.046876-63.488282-23.65625-3.640625c-.855469 7.046875-2.132813 14.039063-3.855469 20.9375-7.40625 29.597657-22.160157 56.253907-42.886719 77.816407v4.734374h2.496094c15.976562-.007812 31.230468-7.632812 40.808594-20.40625zm0 0"/><path d="m200 96h24v32h-24zm0 0"/><path d="m254.183594 224.40625c-18.894532-12.597656-30.183594-33.6875-30.183594-56.40625v-24h-108.6875l-23.242188 23.238281c-7.671874 7.683594-12.070312 18.296875-12.070312 29.144531 0 6.359376 1.503906 12.738282 4.351562 18.433594l7.601563 15.191406c2.648437 5.296876 4.046875 11.238282 4.046875 17.167969 0 13.320313-6.742188 25.488281-18.039062 32.535157l-23.128907 14.449218c-14.296875 8.945313-22.832031 24.351563-22.832031 41.207032 0 4.921874.742188 9.800781 2.207031 14.488281l32.160157 102.921875c2.105468 6.710937 8.242187 11.222656 15.28125 11.222656h174.351562c8.824219 0 16-7.175781 16-16v-190.3125c0-13.398438-6.65625-25.839844-17.816406-33.28125zm-150.800782-45.847656 25.585938-25.582032 11.3125 11.3125-25.585938 25.582032c-1.710937 1.714844-2.695312 4.082031-2.695312 6.511718 0 1.425782.34375 2.847657.984375 4.152344l7.582031 15.160156-14.308594 7.160157-7.59375-15.167969c-1.742187-3.527344-2.664062-7.421875-2.664062-11.304688 0-6.640624 2.6875-13.136718 7.382812-17.824218zm136.617188 237.441406c0 8.824219-7.175781 16-16 16h-118.832031c-7.03125 0-13.167969-4.511719-15.273438-11.222656l-25.152343-80.496094c-.484376-1.554688-.742188-3.21875-.742188-4.914062 0-5.765626 2.910156-11.023438 7.800781-14.070313l23.109375-14.449219c17.355469-10.832031 28.746094-27.488281 32.089844-46.894531 1.984375-11.554687 11.65625-19.953125 23.007812-19.953125h65.992188c13.230469 0 24 10.769531 24 24zm0 0"/><path d="m32 35.886719v-35.886719h-32v33.136719l31.9375 4.910156c.007812-.71875.0625-1.4375.0625-2.160156zm0 0"/><path d="m116.945312 80h131.054688v-14.703125l-21.769531-65.296875h-178.230469v35.878906c0 1.535156-.105469 3.074219-.144531 4.617188l53.449219 8.222656zm0 0"/><path d="m216 256h-66c-3.59375 0-6.566406 2.742188-7.238281 6.664062-4.128907 23.96875-18.113281 44.480469-39.378907 57.761719l-23.109374 14.445313 24.886718 81.136718h118.839844v-152c0-4.414062-3.585938-8.007812-8-8.007812zm-104 88h16v16h-16zm96 48h-96v-16h96zm-56-32v-16h16v16zm56 0h-16v-16h16zm0-32h-72v-16h72zm0-32h-56v-16h56zm0 0"/></svg>