<svg height="480pt" viewBox="-40 0 480 480" width="480pt" xmlns="http://www.w3.org/2000/svg"><path d="m192 216h-3.199219c-13.601562 0-24 10.398438-24 24 0 4 .800781 8.800781 3.199219 12l8 13.601562v6.398438h-32c-13.601562 0-24 10.398438-24 24v64c0 13.601562 10.398438 24 24 24h65.601562l32-16h38.398438v-96h-36l-32.800781-45.601562c-4.800781-6.398438-12-10.398438-19.199219-10.398438zm14.398438 152h-62.398438c-4.800781 0-8-3.199219-8-8v-8h32v-16h-32v-16h32v-16h-32v-8c0-4.800781 3.199219-8 8-8h48v-26.398438l-10.398438-17.601562c-2.402343-4-.800781-8.800781 2.398438-11.199219 1.601562-.800781 2.398438-.800781 4-.800781h4c2.398438 0 4.800781 1.601562 6.398438 3.199219l33.601562 47.199219v72.800781zm57.601562-16h-16v-64h16zm0 0"/><path d="m349.601562 0h-291.203124l-58.398438 134.398438v345.601562h400v-345.601562zm-77.601562 144h64v96h-64zm-252-16 28-64h308l24 64zm49.601562-112h269.597657l12 32h-296zm-53.601562 448v-320h240v112h96v-112h32v320zm0 0"/><path d="m324.800781 273.601562c16.800781 68.796876-25.601562 137.597657-94.402343 154.398438-68.796876 16.800781-137.597657-25.601562-154.398438-94.398438-16.800781-68.800781 25.601562-137.601562 94.398438-154.402343 22.402343-5.597657 45.601562-4.800781 67.203124 2.402343l4.796876-15.203124c-76-23.199219-156.796876 19.203124-180 95.203124-23.199219 76 19.203124 156.796876 95.203124 180 76 23.199219 156.796876-19.203124 180-95.203124 7.199219-24.796876 8-51.199219 2.398438-76zm0 0"/></svg>