<?xml version="1.0" standalone="no"?>
<!DOCTYPE svg PUBLIC "-//W3C//DTD SVG 20010904//EN"
 "http://www.w3.org/TR/2001/REC-SVG-20010904/DTD/svg10.dtd">
<svg version="1.0" xmlns="http://www.w3.org/2000/svg"
 width="1093.000000pt" height="1280.000000pt" viewBox="0 0 1093.000000 1280.000000"
 preserveAspectRatio="xMidYMid meet">
<metadata>
Created by potrace 1.15, written by Peter Selinger 2001-2017
</metadata>
<g transform="translate(0.000000,1280.000000) scale(0.100000,-0.100000)"
fill="#000000" stroke="none">
<path d="M4865 12789 c-519 -24 -1067 -78 -1573 -154 -668 -101 -1424 -267
-1982 -435 -74 -22 -140 -40 -147 -40 -8 0 -37 -12 -65 -26 -188 -95 -370
-409 -450 -775 -19 -90 -22 -133 -22 -314 0 -200 1 -214 27 -298 15 -49 37
-107 48 -129 14 -27 17 -43 10 -47 -7 -5 -10 -83 -8 -238 l2 -232 -25 -6 c-41
-10 -114 -62 -168 -119 -143 -151 -265 -421 -397 -877 -130 -449 -142 -545
-69 -578 48 -22 140 15 369 146 316 182 466 243 594 243 83 0 132 -15 181 -58
86 -73 127 -206 140 -452 10 -198 26 -256 85 -316 52 -51 111 -69 204 -61 226
19 610 239 936 537 116 106 193 160 291 207 71 34 87 38 159 38 66 0 89 -5
129 -25 77 -39 154 -132 226 -272 76 -149 129 -225 207 -299 141 -134 301
-199 491 -200 120 0 210 19 299 66 83 42 109 65 206 181 257 308 599 529 851
551 70 5 175 -8 205 -26 8 -5 7 -61 -4 -217 -14 -203 -35 -633 -35 -744 l0
-55 -85 -39 c-64 -29 -106 -57 -165 -112 -61 -57 -87 -74 -109 -74 -16 0 -79
16 -140 35 -230 72 -416 98 -691 98 -220 -1 -348 -13 -665 -64 -205 -33 -444
-48 -815 -49 -274 -2 -392 21 -593 111 -126 57 -241 93 -349 110 -100 15 -333
7 -413 -15 -152 -42 -267 -126 -320 -233 -24 -50 -29 -73 -33 -166 -4 -89 -7
-105 -18 -96 -26 22 -14 -2863 16 -3801 48 -1501 138 -2163 334 -2459 106
-160 301 -288 571 -375 723 -233 1477 -364 2445 -426 273 -18 1103 -24 1430
-11 678 27 1330 93 1945 197 338 57 735 145 920 205 429 137 714 568 829 1254
36 214 36 234 66 3370 6 616 15 1322 20 1569 8 424 8 453 -10 502 -37 108
-127 205 -238 257 -63 30 -73 32 -172 31 -118 -2 -185 -19 -420 -104 -214 -78
-281 -94 -395 -94 -113 -1 -145 8 -316 85 -208 94 -276 99 -499 34 -157 -46
-249 -54 -322 -30 -113 37 -221 96 -278 154 -51 51 -310 387 -310 401 0 4 19
13 42 20 58 17 210 94 279 140 135 92 224 187 286 305 71 137 154 225 263 282
48 25 66 28 145 28 83 0 97 -3 160 -34 51 -25 93 -57 156 -120 95 -95 155
-180 248 -351 100 -182 179 -273 303 -345 98 -58 183 -78 302 -73 95 4 109 8
187 45 62 30 99 57 140 100 74 77 101 127 158 285 100 279 177 422 261 487 43
32 48 33 110 28 78 -6 157 -36 311 -121 205 -113 464 -292 677 -470 73 -60 94
-73 98 -61 9 23 -3 167 -27 315 -110 701 -378 1391 -661 1705 l-54 60 12 162
c9 123 18 179 37 235 189 550 99 1061 -247 1403 -78 78 -99 93 -146 107 -671
197 -1270 329 -2005 442 -1003 155 -2122 225 -2970 185z m970 -4199 c23 -36
57 -99 75 -140 136 -313 336 -459 630 -460 l85 0 31 -48 31 -47 -113 3 c-138
4 -223 -8 -362 -53 -137 -43 -204 -54 -379 -57 -133 -3 -143 -2 -143 15 0 10
9 107 20 215 19 192 50 578 50 636 0 25 2 27 17 15 9 -8 35 -43 58 -79z"/>
</g>
</svg>
